0
SECTION
2
ENTITIES
0
LINE
8
0
10
0.0
20
0.0
30
-4000.0
11
-490.25653
21
-6.4049644
31
-3901.9822
0
LINE
8
0
10
0.0
20
0.0
30
-4000.0
11
0.0
21
-498.9359
31
-4032.6028
0
LINE
8
0
10
0.0
20
0.0
30
-4000.0
11
98.22696
21
-31.967554
31
-3510.7869
0
LINE
8
0
10
-1422.8556
20
460.92358
30
-4159.8794
11
-1410.0165
21
450.6973
31
-4235.33
0
LINE
8
0
10
-1410.0165
20
450.6973
30
-4235.33
11
-1409.0327
21
389.93973
31
-4280.1357
0
LINE
8
0
10
-1409.0327
20
389.93973
30
-4280.1357
11
-1402.7699
21
330.08237
31
-4328.3574
0
LINE
8
0
10
-1402.7699
20
330.08237
30
-4328.3574
11
-1406.1042
21
250.64026
31
-4346.946
0
LINE
8
0
10
-1406.1042
20
250.64026
30
-4346.946
11
-1406.9135
21
170.15596
31
-4348.006
0
LINE
8
0
10
-1406.9135
20
170.15596
30
-4348.006
11
-1391.3297
21
77.052605
31
-4368.6953
0
LINE
8
0
10
-1391.3297
20
77.052605
30
-4368.6953
11
-1371.388
21
-17.144457
31
-4377.774
0
LINE
8
0
10
-1371.388
20
-17.144457
30
-4377.774
11
-1356.2247
21
-129.26357
31
-4375.147
0
LINE
8
0
10
-1356.2247
20
-129.26357
30
-4375.147
11
-1350.4465
21
-240.2968
31
-4351.2207
0
LINE
8
0
10
-1350.4465
20
-240.2968
30
-4351.2207
11
-1363.8828
21
-306.85535
31
-4275.7812
0
LINE
8
0
10
-1363.8828
20
-306.85535
30
-4275.7812
11
-1373.5693
21
-363.33273
31
-4193.9526
0
LINE
8
0
10
-1373.5693
20
-363.33273
30
-4193.9526
11
-1379.8141
21
-407.1522
31
-4105.771
0
LINE
8
0
10
-1379.8141
20
-407.1522
30
-4105.771
11
-1382.6992
21
-420.66025
31
-4016.0425
0
LINE
8
0
10
-1382.6992
20
-420.66025
30
-4016.0425
11
-1384.0839
21
-415.72116
31
-3940.2747
0
LINE
8
0
10
-1384.0839
20
-415.72116
30
-3940.2747
11
-1392.7291
21
-373.36304
31
-3859.9834
0
LINE
8
0
10
-1392.7291
20
-373.36304
30
-3859.9834
11
-1400.6633
21
-327.9394
31
-3781.0835
0
LINE
8
0
10
-1400.6633
20
-327.9394
30
-3781.0835
11
-1405.3599
21
-270.05542
31
-3717.1313
0
LINE
8
0
10
-1405.3599
20
-270.05542
30
-3717.1313
11
-1409.9695
21
-152.07053
31
-3728.4758
0
LINE
8
0
10
-1409.9695
20
-152.07053
30
-3728.4758
11
-1434.6133
21
-108.71827
31
-3579.2412
0
LINE
8
0
10
-1434.6133
20
-108.71827
30
-3579.2412
11
-1452.7689
21
-26.44259
31
-3539.8271
0
LINE
8
0
10
-1452.7689
20
-26.44259
30
-3539.8271
11
-1465.9913
21
55.659584
31
-3487.4253
0
LINE
8
0
10
-1465.9913
20
55.659584
30
-3487.4253
11
-1473.7568
21
179.25198
31
-3468.8066
0
LINE
8
0
10
-1473.7568
20
179.25198
30
-3468.8066
11
-1478.3354
21
271.2344
31
-3516.009
0
LINE
8
0
10
-1478.3354
20
271.2344
30
-3516.009
11
-1469.3517
21
371.8305
31
-3518.8257
0
LINE
8
0
10
-1469.3517
20
371.8305
30
-3518.8257
11
-1466.3896
21
453.4657
31
-3572.592
0
LINE
8
0
10
-1466.3896
20
453.4657
30
-3572.592
11
-1458.733
21
496.6877
31
-3683.6423
0
LINE
8
0
10
-1458.733
20
496.6877
30
-3683.6423
11
-1456.2462
21
522.1791
31
-3778.9307
0
LINE
8
0
10
-1456.2462
20
522.1791
30
-3778.9307
11
-1463.7617
21
511.8251
31
-3902.5347
0
LINE
8
0
10
-1463.7617
20
511.8251
30
-3902.5347
11
-1462.2328
21
509.1035
31
-3982.3965
0
LINE
8
0
10
-1462.2328
20
509.1035
30
-3982.3965
11
-1449.0067
21
498.80145
31
-4058.7969
0
LINE
8
0
10
-1449.0067
20
498.80145
30
-4058.7969
11
-1488.6941
21
442.74646
31
-4070.3306
0
LINE
8
0
10
-1488.6941
20
442.74646
30
-4070.3306
11
-1411.1976
21
412.5907
31
-4240.519
0
LINE
8
0
10
-1411.1976
20
412.5907
30
-4240.519
11
-1395.5808
21
326.4575
31
-4289.794
0
LINE
8
0
10
-1395.5808
20
326.4575
30
-4289.794
11
-1384.7992
21
234.03432
31
-4321.414
0
LINE
8
0
10
-1384.7992
20
234.03432
30
-4321.414
11
-1365.9036
21
126.52029
31
-4339.3794
0
LINE
8
0
10
-1365.9036
20
126.52029
30
-4339.3794
11
-1351.0555
21
26.722597
31
-4341.104
0
LINE
8
0
10
-1351.0555
20
26.722597
30
-4341.104
11
-1384.944
21
10.230059
31
-4302.0107
0
LINE
8
0
10
-1384.944
20
10.230059
30
-4302.0107
11
-1345.5287
21
-165.74863
31
-4261.3696
0
LINE
8
0
10
-1345.5287
20
-165.74863
30
-4261.3696
11
-1345.0052
21
-245.26785
31
-4198.858
0
LINE
8
0
10
-1345.0052
20
-245.26785
30
-4198.858
11
-1350.5442
21
-229.30615
31
-4159.81
0
LINE
8
0
10
-1350.5442
20
-229.30615
30
-4159.81
11
-1370.6179
21
-373.66675
31
-4048.0054
0
LINE
8
0
10
-1370.6179
20
-373.66675
30
-4048.0054
11
-1385.7843
21
-403.42905
31
-3959.9434
0
LINE
8
0
10
-1385.7843
20
-403.42905
30
-3959.9434
11
-1403.1042
21
-425.91382
31
-3870.8147
0
LINE
8
0
10
-1403.1042
20
-425.91382
30
-3870.8147
11
-1419.5135
21
-415.20407
31
-3781.4792
0
LINE
8
0
10
-1419.5135
20
-415.20407
30
-3781.4792
11
-1432.4996
21
-385.5581
31
-3698.727
0
LINE
8
0
10
-1432.4996
20
-385.5581
30
-3698.727
11
-1438.5295
21
-329.22433
31
-3632.9387
0
LINE
8
0
10
-1438.5295
20
-329.22433
30
-3632.9387
11
-1446.4054
21
-279.87177
31
-3562.5347
0
LINE
8
0
10
-1446.4054
20
-279.87177
30
-3562.5347
11
-1448.2236
21
-154.77661
31
-3552.8174
0
LINE
8
0
10
-1448.2236
20
-154.77661
30
-3552.8174
11
-1455.6104
21
-129.49443
31
-3436.8633
0
LINE
8
0
10
-1455.6104
20
-129.49443
30
-3436.8633
11
-1462.8235
21
-38.04389
31
-3421.6226
0
LINE
8
0
10
-1462.8235
20
-38.04389
30
-3421.6226
11
-1469.1084
21
43.092793
31
-3374.81
0
LINE
8
0
10
-1469.1084
20
43.092793
30
-3374.81
11
-1474.2407
21
137.87398
31
-3392.713
0
LINE
8
0
10
-1474.2407
20
137.87398
30
-3392.713
11
-1467.4146
21
236.21902
31
-3386.1812
0
LINE
8
0
10
-1467.4146
20
236.21902
30
-3386.1812
11
-1467.1866
21
330.13113
31
-3472.8506
0
LINE
8
0
10
-1467.1866
20
330.13113
30
-3472.8506
11
-1448.3414
21
418.62613
31
-3474.1526
0
LINE
8
0
10
-1448.3414
20
418.62613
30
-3474.1526
11
-1504.238
21
387.96646
31
-3694.0298
0
LINE
8
0
10
-1504.238
20
387.96646
30
-3694.0298
11
-1476.7026
21
481.7136
31
-3739.2185
0
LINE
8
0
10
-1476.7026
20
481.7136
30
-3739.2185
11
-1476.1346
21
510.5301
31
-3849.4795
0
LINE
8
0
10
-1476.1346
20
510.5301
30
-3849.4795
11
-1494.4242
21
509.3312
31
-3952.7393
0
LINE
8
0
10
-1494.4242
20
509.3312
30
-3952.7393
11
-1520.5499
21
476.69028
31
-4024.279
0
LINE
8
0
10
-1520.5499
20
476.69028
30
-4024.279
11
-1526.7888
21
442.17636
31
-4110.866
0
LINE
8
0
10
-1526.7888
20
442.17636
30
-4110.866
11
-1545.7935
21
371.7788
31
-4170.1343
0
LINE
8
0
10
-335.4184
20
575.87744
30
-2515.0386
11
-364.89526
21
565.91705
31
-2533.4756
0
LINE
8
0
10
-364.89526
20
565.91705
30
-2533.4756
11
-402.13885
21
543.1936
31
-2560.0415
0
LINE
8
0
10
-402.13885
20
543.1936
30
-2560.0415
11
-444.34125
21
509.3807
31
-2592.3906
0
LINE
8
0
10
-444.34125
20
509.3807
30
-2592.3906
11
-499.62012
21
470.38052
31
-2651.475
0
LINE
8
0
10
-499.62012
20
470.38052
30
-2651.475
11
-546.2789
21
405.2404
31
-2703.7725
0
LINE
8
0
10
-546.2789
20
405.2404
30
-2703.7725
11
-569.85944
21
320.42838
31
-2732.2974
0
LINE
8
0
10
-569.85944
20
320.42838
30
-2732.2974
11
-585.01166
21
216.52432
31
-2763.8096
0
LINE
8
0
10
-585.01166
20
216.52432
30
-2763.8096
11
-585.1656
21
105.78601
31
-2788.17
0
LINE
8
0
10
-585.1656
20
105.78601
30
-2788.17
11
-571.40894
21
-8.84172
31
-2805.5913
0
LINE
8
0
10
-571.40894
20
-8.84172
30
-2805.5913
11
-540.25793
21
-126.618
31
-2808.2834
0
LINE
8
0
10
-540.25793
20
-126.618
30
-2808.2834
11
-492.81604
21
-232.50673
31
-2796.543
0
LINE
8
0
10
-492.81604
20
-232.50673
30
-2796.543
11
-422.26157
21
-323.63614
31
-2765.1797
0
LINE
8
0
10
-422.26157
20
-323.63614
30
-2765.1797
11
-340.3109
21
-386.03888
31
-2725.4624
0
LINE
8
0
10
-340.3109
20
-386.03888
30
-2725.4624
11
-253.16315
21
-428.14404
31
-2681.4722
0
LINE
8
0
10
-253.16315
20
-428.14404
30
-2681.4722
11
-166.50488
21
-450.89496
31
-2635.4348
0
LINE
8
0
10
-166.50488
20
-450.89496
30
-2635.4348
11
-79.3985
21
-460.8331
31
-2586.7715
0
LINE
8
0
10
-79.3985
20
-460.8331
30
-2586.7715
11
7.2062073
21
-445.3794
31
-2540.928
0
LINE
8
0
10
7.2062073
20
-445.3794
30
-2540.928
11
82.54176
21
-407.37192
31
-2503.7441
0
LINE
8
0
10
82.54176
20
-407.37192
30
-2503.7441
11
154.37369
21
-348.20282
31
-2472.1663
0
LINE
8
0
10
154.37369
20
-348.20282
30
-2472.1663
11
221.62213
21
-278.782
31
-2442.0366
0
LINE
8
0
10
221.62213
20
-278.782
30
-2442.0366
11
271.97882
21
-187.90997
31
-2425.7393
0
LINE
8
0
10
271.97882
20
-187.90997
30
-2425.7393
11
310.06512
21
-83.85199
31
-2417.1858
0
LINE
8
0
10
310.06512
20
-83.85199
30
-2417.1858
11
335.34183
21
28.267351
31
-2413.4512
0
LINE
8
0
10
335.34183
20
28.267351
30
-2413.4512
11
337.79547
21
154.15804
31
-2422.1084
0
LINE
8
0
10
337.79547
20
154.15804
30
-2422.1084
11
318.96777
21
271.61456
31
-2440.2197
0
LINE
8
0
10
318.96777
20
271.61456
30
-2440.2197
11
275.21454
21
374.0554
31
-2468.147
0
LINE
8
0
10
275.21454
20
374.0554
30
-2468.147
11
216.83713
21
457.28876
31
-2495.55
0
LINE
8
0
10
216.83713
20
457.28876
30
-2495.55
11
77.9041
21
508.77344
31
-2544.5867
0
LINE
8
0
10
77.9041
20
508.77344
30
-2544.5867
11
-53.477905
21
523.46436
31
-2587.226
0
LINE
8
0
10
-53.477905
20
523.46436
30
-2587.226
11
-167.16689
21
511.07782
31
-2624.8418
0
LINE
8
0
10
-167.16689
20
511.07782
30
-2624.8418
11
-255.1647
21
481.27237
31
-2657.5562
0
LINE
8
0
10
-255.1647
20
481.27237
30
-2657.5562
11
-337.0087
21
439.05603
31
-2707.4048
0
LINE
8
0
10
-337.0087
20
439.05603
30
-2707.4048
11
-403.2931
21
367.27072
31
-2752.0752
0
LINE
8
0
10
-403.2931
20
367.27072
30
-2752.0752
11
-446.45203
21
274.42355
31
-2784.2595
0
LINE
8
0
10
-446.45203
20
274.42355
30
-2784.2595
11
-435.71747
21
183.61398
31
-2710.6113
0
LINE
8
0
10
-435.71747
20
183.61398
30
-2710.6113
11
-431.0923
21
105.04768
31
-2683.1729
0
LINE
8
0
10
-431.0923
20
105.04768
30
-2683.1729
11
-427.62228
21
19.43102
31
-2691.3882
0
LINE
8
0
10
-427.62228
20
19.43102
30
-2691.3882
11
-416.24124
21
-84.85512
31
-2718.8945
0
LINE
8
0
10
-416.24124
20
-84.85512
30
-2718.8945
11
-384.48846
21
-189.32878
31
-2735.9873
0
LINE
8
0
10
-384.48846
20
-189.32878
30
-2735.9873
11
-336.245
21
-282.01447
31
-2730.007
0
LINE
8
0
10
-336.245
20
-282.01447
30
-2730.007
11
-276.33618
21
-352.4904
31
-2707.602
0
LINE
8
0
10
-276.33618
20
-352.4904
30
-2707.602
11
-211.5727
21
-384.51117
31
-2671.6602
0
LINE
8
0
10
-211.5727
20
-384.51117
30
-2671.6602
11
-138.72562
21
-409.44754
31
-2630.5986
0
LINE
8
0
10
-138.72562
20
-409.44754
30
-2630.5986
11
-64.091034
21
-413.54013
31
-2591.1365
0
LINE
8
0
10
-64.091034
20
-413.54013
30
-2591.1365
11
9.406555
21
-392.50018
31
-2554.543
0
LINE
8
0
10
9.406555
20
-392.50018
30
-2554.543
11
77.129654
21
-356.44977
31
-2520.393
0
LINE
8
0
10
77.129654
20
-356.44977
30
-2520.393
11
142.11166
21
-302.55548
31
-2487.9355
0
LINE
8
0
10
142.11166
20
-302.55548
30
-2487.9355
11
191.66809
21
-230.49072
31
-2467.0825
0
LINE
8
0
10
191.66809
20
-230.49072
30
-2467.0825
11
231.9111
21
-150.3509
31
-2449.0608
0
LINE
8
0
10
231.9111
20
-150.3509
30
-2449.0608
11
262.03653
21
-66.5165
31
-2437.6975
0
LINE
8
0
10
262.03653
20
-66.5165
30
-2437.6975
11
279.14252
21
32.97699
31
-2436.543
0
LINE
8
0
10
279.14252
20
32.97699
30
-2436.543
11
281.47583
21
138.445
31
-2447.0964
0
LINE
8
0
10
281.47583
20
138.445
30
-2447.0964
11
261.80087
21
238.3436
31
-2462.1724
0
LINE
8
0
10
261.80087
20
238.3436
30
-2462.1724
11
218.49036
21
339.43085
31
-2486.167
0
LINE
8
0
10
218.49036
20
339.43085
30
-2486.167
11
129.22102
21
439.0546
31
-2524.6597
0
LINE
8
0
10
129.22102
20
439.0546
30
-2524.6597
11
-11.452545
21
500.2052
31
-2560.2354
0
LINE
8
0
10
-11.452545
20
500.2052
30
-2560.2354
11
-139.14499
21
533.52673
31
-2582.5835
0
LINE
8
0
10
-139.14499
20
533.52673
30
-2582.5835
11
-250.47502
21
537.6139
31
-2595.9648
0
LINE
8
0
10
-250.47502
20
537.6139
30
-2595.9648
11
-360.1222
21
516.69836
31
-2606.9805
0
LINE
8
0
10
-360.1222
20
516.69836
30
-2606.9805
11
-466.7243
21
490.753
31
-2634.1428
0
LINE
8
0
10
-466.7243
20
490.753
30
-2634.1428
11
-547.59406
21
421.55347
31
-2638.2275
0
LINE
8
0
10
-547.59406
20
421.55347
30
-2638.2275
11
-614.2424
21
345.76453
31
-2643.6648
0
LINE
8
0
10
-614.2424
20
345.76453
30
-2643.6648
11
-638.2717
21
250.78537
31
-2620.831
0
LINE
8
0
10
-638.2717
20
250.78537
30
-2620.831
11
-672.2003
21
164.69785
31
-2618.96
0
LINE
8
0
10
-672.2003
20
164.69785
30
-2618.96
11
-693.5701
21
74.22652
31
-2618.9873
0
LINE
8
0
10
-693.5701
20
74.22652
30
-2618.9873
11
-697.15094
21
-15.906632
31
-2616.07
0
LINE
8
0
10
-697.15094
20
-15.906632
30
-2616.07
11
-686.9053
21
-103.30902
31
-2610.2922
0
LINE
8
0
10
-686.9053
20
-103.30902
30
-2610.2922
11
-665.1279
21
-186.738
31
-2601.7012
0
LINE
8
0
10
-665.1279
20
-186.738
30
-2601.7012
11
-644.2919
21
-282.8996
31
-2604.9666
0
LINE
8
0
10
-200.89163
20
374.09402
30
-2598.4907
11
-217.31729
21
383.7408
31
-2598.4941
0
LINE
8
0
10
-217.31729
20
383.7408
30
-2598.4941
11
-241.15466
21
394.8437
31
-2601.0083
0
LINE
8
0
10
-241.15466
20
394.8437
30
-2601.0083
11
-271.72183
21
401.02893
31
-2605.944
0
LINE
8
0
10
-271.72183
20
401.02893
30
-2605.944
11
-302.99533
21
399.56787
31
-2613.4307
0
LINE
8
0
10
-302.99533
20
399.56787
30
-2613.4307
11
-338.28345
21
390.74588
31
-2621.8286
0
LINE
8
0
10
-338.28345
20
390.74588
30
-2621.8286
11
-378.04236
21
368.53357
31
-2634.3083
0
LINE
8
0
10
-378.04236
20
368.53357
30
-2634.3083
11
-419.6659
21
336.1686
31
-2648.6526
0
LINE
8
0
10
-419.6659
20
336.1686
30
-2648.6526
11
-458.2088
21
292.04626
31
-2662.3794
0
LINE
8
0
10
-458.2088
20
292.04626
30
-2662.3794
11
-491.45972
21
234.05815
31
-2676.3174
0
LINE
8
0
10
-491.45972
20
234.05815
30
-2676.3174
11
-515.2176
21
168.78621
31
-2689.3555
0
LINE
8
0
10
-515.2176
20
168.78621
30
-2689.3555
11
-529.77747
21
97.892784
31
-2696.1748
0
LINE
8
0
10
-529.77747
20
97.892784
30
-2696.1748
11
-530.0171
21
23.314922
31
-2702.2588
0
LINE
8
0
10
-530.0171
20
23.314922
30
-2702.2588
11
-522.85284
21
-54.969757
31
-2702.7102
0
LINE
8
0
10
-522.85284
20
-54.969757
30
-2702.7102
11
-501.71054
21
-134.59013
31
-2695.0317
0
LINE
8
0
10
-501.71054
20
-134.59013
30
-2695.0317
11
-472.28693
21
-211.34143
31
-2682.4229
0
LINE
8
0
10
-472.28693
20
-211.34143
30
-2682.4229
11
-430.47464
21
-289.10397
31
-2670.063
0
LINE
8
0
10
-430.47464
20
-289.10397
30
-2670.063
11
-383.72614
21
-360.0992
31
-2658.7725
0
LINE
8
0
10
-383.72614
20
-360.0992
30
-2658.7725
11
-324.57574
21
-397.7009
31
-2635.7397
0
LINE
8
0
10
-324.57574
20
-397.7009
30
-2635.7397
11
-260.13055
21
-429.93597
31
-2617.5308
0
LINE
8
0
10
-260.13055
20
-429.93597
30
-2617.5308
11
-191.62274
21
-452.50812
31
-2602.0127
0
LINE
8
0
10
-191.62274
20
-452.50812
30
-2602.0127
11
-119.25369
21
-465.52905
31
-2587.5493
0
LINE
8
0
10
-119.25369
20
-465.52905
30
-2587.5493
11
-40.13864
21
-471.94235
31
-2578.057
0
LINE
8
0
10
-40.13864
20
-471.94235
30
-2578.057
11
32.539597
21
-462.05423
31
-2574.151
0
LINE
8
0
10
32.539597
20
-462.05423
30
-2574.151
11
100.56178
21
-433.6314
31
-2574.627
0
LINE
8
0
10
100.56178
20
-433.6314
30
-2574.627
11
169.44684
21
-386.3385
31
-2578.68
0
LINE
8
0
10
169.44684
20
-386.3385
30
-2578.68
11
226.4431
21
-329.11295
31
-2582.6777
0
LINE
8
0
10
226.4431
20
-329.11295
30
-2582.6777
11
279.83975
21
-261.9905
31
-2587.005
0
LINE
8
0
10
279.83975
20
-261.9905
30
-2587.005
11
320.0157
21
-186.75691
31
-2594.8484
0
LINE
8
0
10
320.0157
20
-186.75691
30
-2594.8484
11
348.89508
21
-105.86125
31
-2606.501
0
LINE
8
0
10
348.89508
20
-105.86125
30
-2606.501
11
363.62067
21
-23.655586
31
-2619.75
0
LINE
8
0
10
363.62067
20
-23.655586
30
-2619.75
11
367.92566
21
56.17996
31
-2635.9219
0
LINE
8
0
10
367.92566
20
56.17996
30
-2635.9219
11
358.0619
21
133.79953
31
-2655.8267
0
LINE
8
0
10
358.0619
20
133.79953
30
-2655.8267
11
332.89117
21
202.654
31
-2682.456
0
LINE
8
0
10
332.89117
20
202.654
30
-2682.456
11
290.63278
21
267.51532
31
-2718.4707
0
LINE
8
0
10
290.63278
20
267.51532
30
-2718.4707
11
237.4536
21
319.53632
31
-2758.002
0
LINE
8
0
10
237.4536
20
319.53632
30
-2758.002
11
172.33421
21
356.6068
31
-2802.9888
0
LINE
8
0
10
172.33421
20
356.6068
30
-2802.9888
11
82.250626
21
362.1715
31
-2826.195
0
LINE
8
0
10
82.250626
20
362.1715
30
-2826.195
11
4.699692
21
355.6904
31
-2877.2231
0
LINE
8
0
10
4.699692
20
355.6904
30
-2877.2231
11
-73.39613
21
336.89008
31
-2934.026
0
LINE
8
0
10
-73.39613
20
336.89008
30
-2934.026
11
-138.3487
21
296.64374
31
-2981.1714
0
LINE
8
0
10
-138.3487
20
296.64374
30
-2981.1714
11
-179.34592
21
237.99309
31
-3017.9663
0
LINE
8
0
10
-179.34592
20
237.99309
30
-3017.9663
11
-206.64581
21
153.71507
31
-3047.026
0
LINE
8
0
10
-206.64581
20
153.71507
30
-3047.026
11
-217.92078
21
69.73991
31
-3065.8887
0
LINE
8
0
10
-217.92078
20
69.73991
30
-3065.8887
11
-217.66153
21
-9.828209
31
-3078.4043
0
LINE
8
0
10
-217.66153
20
-9.828209
30
-3078.4043
11
-193.05669
21
-85.90008
31
-3091.5303
0
LINE
8
0
10
-193.05669
20
-85.90008
30
-3091.5303
11
-153.65753
21
-151.91881
31
-3099.586
0
LINE
8
0
10
-153.65753
20
-151.91881
30
-3099.586
11
-108.02663
21
-196.0797
31
-3087.184
0
LINE
8
0
10
-108.02663
20
-196.0797
30
-3087.184
11
-53.105988
21
-235.26884
31
-3077.5955
0
LINE
8
0
10
-53.105988
20
-235.26884
30
-3077.5955
11
4.479233
21
-260.40814
31
-3064.997
0
LINE
8
0
10
4.479233
20
-260.40814
30
-3064.997
11
63.941635
21
-271.1489
31
-3050.126
0
LINE
8
0
10
63.941635
20
-271.1489
30
-3050.126
11
127.24084
21
-271.22073
31
-3037.717
0
LINE
8
0
10
127.24084
20
-271.22073
30
-3037.717
11
184.71779
21
-247.7515
31
-3024.9624
0
LINE
8
0
10
184.71779
20
-247.7515
30
-3024.9624
11
233.84973
21
-202.6892
31
-3013.8132
0
LINE
8
0
10
233.84973
20
-202.6892
30
-3013.8132
11
272.75546
21
-137.33527
31
-3009.6467
0
LINE
8
0
10
272.75546
20
-137.33527
30
-3009.6467
11
299.2053
21
-57.989582
31
-3018.3022
0
LINE
8
0
10
299.2053
20
-57.989582
30
-3018.3022
11
309.57852
21
25.77163
31
-3040.8613
0
LINE
8
0
10
309.57852
20
25.77163
30
-3040.8613
11
300.80508
21
103.66904
31
-3077.0347
0
LINE
8
0
10
300.80508
20
103.66904
30
-3077.0347
11
269.18008
21
177.74112
31
-3133.8022
0
LINE
8
0
10
269.18008
20
177.74112
30
-3133.8022
11
198.79718
21
225.09529
31
-3191.2793
0
LINE
8
0
10
198.79718
20
225.09529
30
-3191.2793
11
126.4924
21
249.8402
31
-3248.0989
0
LINE
8
0
10
126.4924
20
249.8402
30
-3248.0989
11
34.768616
21
254.4992
31
-3307.9631
0
LINE
8
0
10
34.768616
20
254.4992
30
-3307.9631
11
-48.482956
21
236.69579
31
-3355.0798
0
LINE
8
0
10
-48.482956
20
236.69579
30
-3355.0798
11
-115.5154
21
213.37288
31
-3381.2617
0
LINE
8
0
10
-115.5154
20
213.37288
30
-3381.2617
11
-169.7556
21
173.87833
31
-3390.7048
0
LINE
8
0
10
-169.7556
20
173.87833
30
-3390.7048
11
-215.96191
21
126.4907
31
-3404.0835
0
LINE
8
0
10
-215.96191
20
126.4907
30
-3404.0835
11
-253.16608
21
75.34544
31
-3413.4133
0
LINE
8
0
10
-253.16608
20
75.34544
30
-3413.4133
11
-277.2719
21
25.746395
31
-3420.9653
0
LINE
8
0
10
-277.2719
20
25.746395
30
-3420.9653
11
-288.0732
21
-22.466892
31
-3425.9712
0
LINE
8
0
10
-288.0732
20
-22.466892
30
-3425.9712
11
-287.57104
21
-66.80895
31
-3430.074
0
LINE
8
0
10
-287.57104
20
-66.80895
30
-3430.074
11
-276.9019
21
-106.87679
31
-3434.3918
0
LINE
8
0
10
-276.9019
20
-106.87679
30
-3434.3918
11
-259.5739
21
-139.90065
31
-3439.2532
0
LINE
8
0
10
-259.5739
20
-139.90065
30
-3439.2532
11
-238.34138
21
-166.74883
31
-3446.24
0
LINE
8
0
10
-238.34138
20
-166.74883
30
-3446.24
11
-210.42044
21
-188.6726
31
-3454.977
0
LINE
8
0
10
-210.42044
20
-188.6726
30
-3454.977
11
-177.96
21
-204.41142
31
-3463.96
0
LINE
8
0
10
-177.96
20
-204.41142
30
-3463.96
11
-140.60722
21
-215.26074
31
-3473.5173
0
LINE
8
0
10
-140.60722
20
-215.26074
30
-3473.5173
11
-100.451385
21
-218.60634
31
-3478.975
0
LINE
8
0
10
-100.451385
20
-218.60634
30
-3478.975
11
-52.63611
21
-220.41563
31
-3483.8687
0
LINE
8
0
10
-52.63611
20
-220.41563
30
-3483.8687
11
2.2943878
21
-218.34135
31
-3486.6948
0
LINE
8
0
10
2.2943878
20
-218.34135
30
-3486.6948
11
56.825874
21
-205.19464
31
-3485.184
0
LINE
8
0
10
56.825874
20
-205.19464
30
-3485.184
11
103.90651
21
-181.04037
31
-3490.0889
0
LINE
8
0
10
103.90651
20
-181.04037
30
-3490.0889
11
137.6453
21
-143.51883
31
-3505.522
0
LINE
8
0
10
137.6453
20
-143.51883
30
-3505.522
11
155.48477
21
-99.34869
31
-3520.4001
0
LINE
8
0
10
155.48477
20
-99.34869
30
-3520.4001
11
133.71611
21
-47.4112
31
-3515.8315
0
LINE
8
0
10
133.71611
20
-47.4112
30
-3515.8315
11
97.46913
21
-0.08808463
31
-3508.9084
0
LINE
8
0
10
97.46913
20
-0.08808463
30
-3508.9084
11
57.99549
21
32.604206
31
-3504.046
0
LINE
8
0
10
57.99549
20
32.604206
30
-3504.046
11
-2.5060425
21
56.866924
31
-3478.2402
0
LINE
8
0
10
-2.5060425
20
56.866924
30
-3478.2402
11
-60.792244
21
176.54141
31
-3576.1812
0
LINE
8
0
10
-60.792244
20
176.54141
30
-3576.1812
11
-86.48981
21
272.93964
31
-3563.415
0
LINE
8
0
10
-86.48981
20
272.93964
30
-3563.415
11
-97.67625
21
361.38232
31
-3525.164
0
LINE
8
0
10
-97.67625
20
361.38232
30
-3525.164
11
-106.01345
21
418.39322
31
-3481.4128
0
LINE
8
0
10
-106.01345
20
418.39322
30
-3481.4128
11
-107.58228
21
464.27124
31
-3440.1895
0
LINE
8
0
10
-107.58228
20
464.27124
30
-3440.1895
11
-100.1871
21
502.34457
31
-3405.379
0
LINE
8
0
10
-100.1871
20
502.34457
30
-3405.379
11
-90.76925
21
532.57367
31
-3371.9993
0
ENDSEC
0
EOF
